<svg width="1252" height="1438" viewBox="0 0 1252 1438" fill="none" xmlns="http://www.w3.org/2000/svg">
<path fill-rule="evenodd" clip-rule="evenodd" d="M616.784 3.70061C607.986 8.40261 604.853 10.2226 594.284 16.7716C585.926 21.9506 582.99 23.6896 575.534 27.8786C573.472 29.0366 571.334 30.3386 570.784 30.7716C570.234 31.2046 568.097 32.5066 566.034 33.6646C556.465 39.0406 554.621 40.1146 552.284 41.6746C550.909 42.5926 548.434 43.9886 546.784 44.7766C545.134 45.5656 541.903 47.4616 539.604 48.9906C537.305 50.5206 535.158 51.7716 534.832 51.7716C534.507 51.7716 532.563 52.8396 530.513 54.1446C527.005 56.3766 507.671 67.8366 500.534 71.9146C492.333 76.6006 490.068 77.8956 487.034 79.6316C485.246 80.6546 481.402 82.9046 478.49 84.6316C475.578 86.3586 472.959 87.7716 472.67 87.7716C472.381 87.7716 470.182 89.1216 467.784 90.7716C465.386 92.4216 463.136 93.7716 462.784 93.7716C462.432 93.7716 460.182 95.1216 457.784 96.7716C455.386 98.4216 453.124 99.7716 452.758 99.7716C452.392 99.7716 450.898 100.603 449.438 101.619C447.978 102.635 444.309 104.826 441.284 106.488C438.259 108.15 432.687 111.41 428.901 113.732C425.115 116.055 420.503 118.814 418.651 119.864C409.611 124.987 403.996 128.223 392.784 134.772C387.834 137.663 382.209 140.919 380.284 142.007C378.359 143.095 376.334 144.339 375.784 144.772C375.234 145.205 373.209 146.449 371.284 147.537C369.359 148.625 363.734 151.881 358.784 154.772C353.834 157.663 348.434 160.808 346.784 161.761C345.134 162.713 341.402 164.905 338.49 166.632C335.578 168.359 332.948 169.772 332.644 169.772C332.341 169.772 330.898 170.619 329.438 171.655C327.978 172.691 325.097 174.491 323.034 175.655C320.972 176.819 317.709 178.672 315.784 179.772C313.859 180.872 310.709 182.672 308.784 183.772C306.859 184.872 303.709 186.672 301.784 187.772C293.12 192.723 291.475 193.676 286.49 196.632C283.578 198.359 281.037 199.772 280.842 199.772C280.648 199.772 277.526 201.572 273.904 203.772C270.283 205.972 267.067 207.772 266.757 207.772C266.447 207.772 262.859 210.022 258.784 212.772C254.709 215.522 251.098 217.772 250.759 217.772C250.421 217.772 248.182 219.122 245.784 220.772C243.386 222.422 241.124 223.772 240.758 223.772C240.392 223.772 238.898 224.62 237.438 225.657C235.978 226.693 232.534 228.768 229.784 230.268C227.034 231.767 222.084 234.686 218.784 236.753C210.973 241.645 188.124 255.158 186.806 255.665C186.244 255.881 184.659 256.84 183.284 257.798C181.909 258.755 179.209 260.433 177.284 261.527C175.359 262.62 169.734 265.887 164.784 268.786C159.834 271.685 153.984 275.005 151.784 276.164C149.584 277.323 147.559 278.535 147.284 278.857C147.009 279.179 144.102 280.904 140.824 282.689C137.546 284.474 133.651 286.798 132.17 287.853C130.688 288.909 129.199 289.772 128.862 289.772C128.524 289.772 125.285 291.572 121.664 293.772C118.042 295.972 114.947 297.772 114.784 297.772C114.621 297.772 111.526 299.572 107.904 301.772C104.283 303.972 101.044 305.772 100.706 305.772C100.369 305.772 98.8978 306.619 97.4378 307.655C95.9778 308.691 93.0968 310.491 91.0338 311.655C88.9708 312.819 85.7088 314.672 83.7838 315.772C81.8588 316.872 78.5958 318.725 76.5338 319.889C74.4718 321.053 71.5898 322.853 70.1298 323.889C68.6698 324.925 67.1988 325.772 66.8618 325.772C66.5238 325.772 63.2848 327.572 59.6638 329.772C56.0418 331.972 52.8688 333.772 52.6118 333.772C52.3548 333.772 50.1818 335.122 47.7838 336.772C45.3858 338.422 43.1588 339.772 42.8358 339.772C42.5118 339.772 39.2848 341.572 35.6638 343.772C32.0418 345.972 28.8578 347.772 28.5858 347.772C28.3148 347.772 26.8978 348.619 25.4378 349.655C19.0448 354.19 8.63384 359.39 4.78384 359.97C0.416836 360.629 -0.47916 365.68 0.20684 385.772C0.55384 395.947 0.975845 436.672 1.14284 476.272C1.30984 515.872 1.61784 553.523 1.82684 559.941C2.19484 571.254 2.30083 1045.29 1.93883 1065.15C1.76083 1074.93 3.96883 1079.77 8.61083 1079.77C8.96183 1079.77 12.1898 1081.57 15.7838 1083.77C19.3778 1085.97 22.5678 1087.77 22.8708 1087.77C23.1748 1087.77 25.3858 1089.12 27.7838 1090.77C30.1818 1092.42 32.4438 1093.77 32.8098 1093.77C33.1758 1093.77 34.6698 1094.62 36.1298 1095.65C37.5898 1096.69 40.4718 1098.49 42.5338 1099.65C44.5968 1100.82 47.8588 1102.67 49.7838 1103.77C51.7088 1104.87 54.9708 1106.72 57.0338 1107.89C59.0968 1109.05 61.9088 1110.76 63.2838 1111.67C64.6588 1112.59 67.1338 1113.99 68.7838 1114.78C70.4338 1115.57 73.6648 1117.46 75.9638 1118.99C78.2628 1120.52 80.4438 1121.77 80.8098 1121.77C81.1758 1121.77 82.6698 1122.6 84.1298 1123.62C85.5898 1124.63 89.2588 1126.81 92.2838 1128.46C95.3088 1130.11 102.438 1134.23 108.127 1137.61C113.816 1141 118.607 1143.77 118.775 1143.77C118.942 1143.77 122.042 1145.57 125.664 1147.77C129.285 1149.97 132.524 1151.77 132.862 1151.77C133.199 1151.77 134.67 1152.62 136.13 1153.65C137.59 1154.69 140.472 1156.49 142.534 1157.65C146.107 1159.67 149.275 1161.48 156.534 1165.63C158.322 1166.65 162.166 1168.9 165.078 1170.63C167.99 1172.36 170.518 1173.77 170.696 1173.77C170.873 1173.77 176.282 1176.92 182.714 1180.77C189.146 1184.62 194.637 1187.77 194.916 1187.77C195.195 1187.77 197.386 1189.12 199.784 1190.77C202.182 1192.42 204.432 1193.77 204.784 1193.77C205.136 1193.77 207.386 1195.12 209.784 1196.77C212.182 1198.42 214.432 1199.77 214.784 1199.77C215.136 1199.77 217.386 1201.12 219.784 1202.77C222.182 1204.42 224.432 1205.77 224.784 1205.77C225.136 1205.77 227.386 1207.12 229.784 1208.77C232.182 1210.42 234.355 1211.77 234.612 1211.77C234.869 1211.77 238.042 1213.57 241.664 1215.77C245.285 1217.97 248.512 1219.77 248.836 1219.77C249.159 1219.77 251.386 1221.12 253.784 1222.77C256.182 1224.42 258.409 1225.77 258.732 1225.77C259.056 1225.77 262.283 1227.57 265.904 1229.77C269.526 1231.97 272.699 1233.77 272.956 1233.77C273.213 1233.77 275.386 1235.12 277.784 1236.77C280.182 1238.42 282.432 1239.77 282.784 1239.77C283.136 1239.77 285.305 1241.02 287.604 1242.55C289.903 1244.08 293.134 1245.98 294.784 1246.77C296.434 1247.56 299.665 1249.46 301.964 1250.99C304.263 1252.52 306.432 1253.77 306.784 1253.77C307.136 1253.77 309.386 1255.12 311.784 1256.77C314.182 1258.42 316.432 1259.77 316.784 1259.77C317.136 1259.77 319.305 1261.02 321.604 1262.55C323.903 1264.08 327.134 1265.98 328.784 1266.77C330.434 1267.56 333.665 1269.46 335.964 1270.99C338.263 1272.52 340.432 1273.77 340.784 1273.77C341.136 1273.77 343.386 1275.12 345.784 1276.77C348.182 1278.42 350.444 1279.77 350.81 1279.77C351.176 1279.77 352.67 1280.62 354.13 1281.65C355.59 1282.69 358.359 1284.43 360.284 1285.53C362.209 1286.62 367.834 1289.88 372.784 1292.77C377.734 1295.66 383.359 1298.92 385.284 1300.01C387.209 1301.09 389.234 1302.34 389.784 1302.77C390.334 1303.2 392.359 1304.45 394.284 1305.54C396.209 1306.62 401.834 1309.88 406.784 1312.77C411.734 1315.66 417.134 1318.81 418.784 1319.76C420.434 1320.71 424.259 1322.97 427.284 1324.77C430.309 1326.58 434.246 1328.89 436.034 1329.91C437.822 1330.93 440.747 1332.61 442.534 1333.63C444.322 1334.65 448.166 1336.9 451.078 1338.63C453.99 1340.36 456.609 1341.77 456.898 1341.77C457.187 1341.77 459.305 1343.02 461.604 1344.55C463.903 1346.08 467.134 1347.98 468.784 1348.77C470.434 1349.56 473.665 1351.46 475.964 1352.99C478.263 1354.52 480.432 1355.77 480.784 1355.77C481.136 1355.77 483.386 1357.12 485.784 1358.77C488.182 1360.42 490.444 1361.77 490.81 1361.77C491.176 1361.77 492.67 1362.62 494.13 1363.65C495.59 1364.69 498.472 1366.49 500.534 1367.65C509.134 1372.51 515.322 1376.07 526.784 1382.78C531.734 1385.67 538.259 1389.4 541.284 1391.05C544.309 1392.71 547.244 1394.41 547.807 1394.85C548.369 1395.28 551.294 1396.95 554.307 1398.55C557.319 1400.15 561.472 1402.43 563.534 1403.62C565.597 1404.8 568.859 1406.67 570.784 1407.77C572.709 1408.87 575.971 1410.74 578.034 1411.92C580.097 1413.11 585.159 1415.86 589.284 1418.04C593.409 1420.23 597.234 1422.37 597.784 1422.8C598.334 1423.23 601.484 1425.05 604.784 1426.84C608.084 1428.63 613.403 1431.82 616.605 1433.93C623.617 1438.56 625.151 1438.65 630.784 1434.77C633.182 1433.12 635.432 1431.77 635.784 1431.77C636.136 1431.77 638.386 1430.42 640.784 1428.77C643.182 1427.12 645.381 1425.77 645.67 1425.77C645.959 1425.77 648.578 1424.35 651.49 1422.62C654.402 1420.88 659.034 1418.25 661.784 1416.77C664.534 1415.29 669.166 1412.66 672.078 1410.93C674.99 1409.19 677.557 1407.77 677.784 1407.77C678.011 1407.77 680.578 1406.35 683.49 1404.62C686.402 1402.88 691.034 1400.25 693.784 1398.77C696.534 1397.29 700.584 1395.05 702.784 1393.78C704.984 1392.52 708.809 1390.37 711.284 1388.99C713.759 1387.62 718.396 1384.99 721.588 1383.14C724.78 1381.29 727.546 1379.77 727.735 1379.77C727.925 1379.77 731.042 1377.97 734.664 1375.77C738.285 1373.57 741.512 1371.77 741.836 1371.77C742.159 1371.77 744.305 1370.52 746.604 1368.99C748.903 1367.46 752.134 1365.56 753.784 1364.77C755.434 1363.98 758.665 1362.08 760.964 1360.55C763.263 1359.02 765.393 1357.77 765.697 1357.77C766 1357.77 769.19 1355.97 772.784 1353.77C776.378 1351.57 779.568 1349.77 779.871 1349.77C780.175 1349.77 782.305 1348.52 784.604 1346.99C786.903 1345.46 790.134 1343.56 791.784 1342.77C793.434 1341.98 796.665 1340.08 798.964 1338.55C801.263 1337.02 803.409 1335.77 803.732 1335.77C804.056 1335.77 807.283 1333.97 810.904 1331.77C814.526 1329.57 817.699 1327.77 817.956 1327.77C818.213 1327.77 820.386 1326.42 822.784 1324.77C825.182 1323.12 827.444 1321.77 827.81 1321.77C828.176 1321.77 829.67 1320.94 831.13 1319.92C832.59 1318.91 836.259 1316.72 839.284 1315.07C842.309 1313.42 847.166 1310.65 850.078 1308.92C852.99 1307.19 855.609 1305.77 855.898 1305.77C856.187 1305.77 858.386 1304.42 860.784 1302.77C863.182 1301.12 865.444 1299.77 865.81 1299.77C866.176 1299.77 867.67 1298.92 869.13 1297.89C870.59 1296.85 873.472 1295.05 875.534 1293.89C877.597 1292.72 880.859 1290.87 882.784 1289.77C884.709 1288.67 887.859 1286.87 889.784 1285.77C891.709 1284.67 894.859 1282.87 896.784 1281.77C898.709 1280.67 901.972 1278.82 904.034 1277.66C906.097 1276.51 908.234 1275.2 908.784 1274.77C909.334 1274.34 911.472 1273.04 913.534 1271.88C915.597 1270.72 918.972 1268.81 921.034 1267.62C923.097 1266.44 927.259 1264.12 930.284 1262.47C933.309 1260.82 936.978 1258.63 938.438 1257.62C939.898 1256.6 941.392 1255.77 941.758 1255.77C942.124 1255.77 944.386 1254.42 946.784 1252.77C949.182 1251.12 951.355 1249.77 951.612 1249.77C951.869 1249.77 955.042 1247.97 958.664 1245.77C962.285 1243.57 965.524 1241.77 965.862 1241.77C966.199 1241.77 967.67 1240.94 969.13 1239.92C970.59 1238.91 974.259 1236.72 977.284 1235.07C980.309 1233.42 985.166 1230.65 988.078 1228.92C990.99 1227.19 993.609 1225.77 993.898 1225.77C994.187 1225.77 996.386 1224.42 998.784 1222.77C1001.18 1221.12 1003.38 1219.77 1003.67 1219.77C1003.96 1219.77 1006.58 1218.36 1009.49 1216.63C1015.13 1213.29 1018.99 1211.06 1025.03 1207.66C1027.1 1206.51 1029.23 1205.2 1029.78 1204.77C1030.33 1204.34 1032.47 1203.04 1034.53 1201.88C1042.02 1197.67 1044.93 1195.95 1053.28 1190.76C1066.87 1182.33 1071.31 1179.77 1072.33 1179.77C1072.85 1179.77 1073.28 1179.43 1073.28 1179.02C1073.28 1178.61 1075.42 1177.15 1078.03 1175.78C1080.65 1174.41 1085.59 1171.59 1089.02 1169.53C1092.44 1167.46 1095.51 1165.77 1095.84 1165.77C1096.16 1165.77 1098.39 1164.42 1100.78 1162.77C1103.18 1161.12 1105.35 1159.77 1105.61 1159.77C1105.87 1159.77 1109.04 1157.97 1112.66 1155.77C1116.28 1153.57 1119.52 1151.77 1119.86 1151.77C1120.2 1151.77 1121.67 1150.94 1123.13 1149.92C1124.59 1148.91 1128.26 1146.72 1131.28 1145.07C1134.31 1143.42 1139.17 1140.65 1142.08 1138.92C1144.99 1137.19 1147.62 1135.77 1147.92 1135.77C1148.23 1135.77 1149.67 1134.94 1151.13 1133.92C1152.59 1132.91 1156.26 1130.72 1159.28 1129.07C1162.31 1127.42 1167.17 1124.65 1170.08 1122.92C1172.99 1121.19 1175.61 1119.77 1175.9 1119.77C1176.19 1119.77 1178.3 1118.52 1180.6 1116.99C1182.9 1115.46 1186.13 1113.56 1187.78 1112.77C1189.43 1111.98 1192.66 1110.08 1194.96 1108.55C1197.26 1107.02 1199.38 1105.77 1199.66 1105.77C1199.94 1105.77 1202.79 1104.26 1205.98 1102.41C1209.17 1100.56 1213.81 1097.92 1216.28 1096.55C1218.76 1095.18 1222.58 1093.02 1224.78 1091.76C1226.98 1090.5 1231.03 1088.25 1233.78 1086.77C1253.16 1076.33 1251.67 1080.36 1250.68 1040.89C1249.74 1003.54 1249.42 498.122 1250.28 412.89C1250.78 363.508 1250.78 363.508 1244.43 359.64C1240.94 357.513 1237.87 355.772 1237.61 355.772C1237.36 355.772 1235.18 354.422 1232.78 352.772C1230.39 351.122 1228.14 349.772 1227.78 349.772C1227.43 349.772 1225.18 348.422 1222.78 346.772C1220.39 345.122 1218.16 343.772 1217.84 343.772C1217.51 343.772 1214.28 341.972 1210.66 339.772C1207.04 337.572 1203.87 335.772 1203.61 335.772C1203.35 335.772 1201.18 334.422 1198.78 332.772C1196.39 331.122 1194.19 329.772 1193.9 329.772C1193.61 329.772 1190.99 328.359 1188.08 326.632C1185.17 324.905 1181.32 322.655 1179.53 321.632C1172.27 317.477 1169.11 315.672 1165.53 313.655C1163.47 312.491 1160.59 310.691 1159.13 309.655C1157.67 308.619 1156.18 307.772 1155.81 307.772C1155.44 307.772 1153.26 306.521 1150.96 304.991C1148.66 303.462 1145.43 301.566 1143.78 300.777C1142.13 299.989 1139.66 298.593 1138.28 297.675C1136.91 296.757 1134.1 295.053 1132.03 293.889C1127.58 291.375 1125.62 290.246 1109.28 280.772C1102.41 276.786 1095.21 272.627 1093.28 271.531C1091.36 270.435 1088.59 268.691 1087.13 267.655C1085.67 266.619 1084.2 265.772 1083.86 265.772C1083.52 265.772 1080.28 263.972 1076.66 261.772C1073.04 259.572 1069.95 257.772 1069.78 257.772C1069.62 257.772 1066.53 255.972 1062.9 253.772C1059.28 251.572 1056.06 249.772 1055.73 249.772C1055.41 249.772 1053.18 248.422 1050.78 246.772C1048.39 245.122 1046.14 243.772 1045.78 243.772C1045.43 243.772 1043.18 242.422 1040.78 240.772C1038.39 239.122 1036.16 237.772 1035.84 237.772C1035.51 237.772 1032.28 235.972 1028.66 233.772C1025.04 231.572 1021.87 229.772 1021.61 229.772C1021.35 229.772 1019.18 228.422 1016.78 226.772C1014.39 225.122 1012.12 223.772 1011.76 223.772C1011.39 223.772 1009.9 222.925 1008.44 221.889C1006.98 220.853 1004.1 219.053 1002.03 217.889C993.616 213.137 987.43 209.574 975.784 202.772C966.893 197.579 963.381 195.545 957.034 191.912C955.247 190.889 951.309 188.576 948.284 186.772C945.259 184.968 941.434 182.713 939.784 181.761C938.134 180.808 932.734 177.663 927.784 174.772C917.929 169.016 914.023 166.757 908.917 163.864C907.065 162.814 902.519 160.114 898.815 157.864C895.111 155.613 891.869 153.772 891.612 153.772C891.355 153.772 889.182 152.422 886.784 150.772C884.386 149.122 882.213 147.772 881.956 147.772C881.699 147.772 878.437 145.918 874.707 143.652C870.977 141.386 865.981 138.461 863.605 137.152C855.875 132.894 850.855 130.096 847.034 127.913C838.327 122.941 836.527 121.899 831.49 118.912C828.578 117.185 825.959 115.772 825.67 115.772C825.381 115.772 823.182 114.422 820.784 112.772C818.386 111.122 816.159 109.772 815.836 109.772C815.512 109.772 812.285 107.972 808.664 105.772C805.042 103.572 801.92 101.772 801.726 101.772C801.531 101.772 798.99 100.359 796.078 98.6316C793.166 96.9046 789.321 94.6546 787.534 93.6316C780.275 89.4766 777.107 87.6716 773.534 85.6546C771.472 84.4906 768.59 82.6906 767.13 81.6546C765.67 80.6186 764.199 79.7716 763.862 79.7716C763.524 79.7716 760.285 77.9716 756.664 75.7716C753.042 73.5716 749.869 71.7716 749.612 71.7716C749.355 71.7716 747.182 70.4216 744.784 68.7716C742.386 67.1216 740.213 65.7716 739.956 65.7716C739.699 65.7716 736.526 63.9716 732.904 61.7716C729.283 59.5716 726.044 57.7716 725.706 57.7716C725.369 57.7716 723.898 56.9246 722.438 55.8886C720.978 54.8526 718.097 53.0526 716.034 51.8886C709.259 48.0636 705.858 46.0946 700.284 42.7716C697.259 40.9676 693.434 38.7126 691.784 37.7606C690.134 36.8076 684.734 33.6626 679.784 30.7716C674.834 27.8806 669.434 24.7426 667.784 23.7996C666.134 22.8566 659.384 18.8126 652.784 14.8126C646.184 10.8136 639.209 6.64063 637.284 5.53963C635.359 4.43863 632.59 2.69062 631.13 1.65462C627.428 -0.971377 624.832 -0.601388 616.784 3.70061ZM625.834 60.6376C626.356 61.1136 629.259 62.8466 632.284 64.4896C635.309 66.1326 639.472 68.4436 641.534 69.6246C643.597 70.8056 646.859 72.6716 648.784 73.7716C650.709 74.8716 653.972 76.7396 656.034 77.9226C658.097 79.1056 662.934 81.7576 666.784 83.8156C670.634 85.8746 677.834 89.9146 682.784 92.7946C687.734 95.6746 693.809 99.1686 696.284 100.56C698.759 101.952 702.463 104.143 704.514 105.431C706.566 106.719 708.51 107.772 708.834 107.772C709.158 107.772 711.386 109.122 713.784 110.772C716.182 112.422 718.409 113.772 718.732 113.772C719.056 113.772 722.13 115.46 725.564 117.522C728.998 119.585 733.153 121.933 734.796 122.741C736.439 123.55 739.665 125.462 741.964 126.991C744.263 128.521 746.409 129.772 746.732 129.772C747.056 129.772 750.283 131.572 753.904 133.772C757.526 135.972 760.621 137.772 760.784 137.772C760.947 137.772 764.042 139.572 767.664 141.772C771.285 143.972 774.524 145.772 774.862 145.772C775.199 145.772 776.67 146.603 778.13 147.619C779.59 148.635 783.259 150.826 786.284 152.488C789.309 154.15 797.409 158.775 804.284 162.765C823.082 173.676 823.37 173.84 829.284 177.072C832.309 178.725 835.978 180.909 837.438 181.925C838.898 182.941 840.337 183.772 840.635 183.772C840.933 183.772 843.788 185.286 846.98 187.136C850.172 188.987 854.809 191.623 857.284 192.995C859.759 194.367 863.472 196.453 865.534 197.631C867.597 198.808 870.972 200.72 873.034 201.879C875.097 203.037 877.234 204.324 877.784 204.739C878.334 205.153 882.384 207.422 886.784 209.781C891.184 212.14 895.978 214.903 897.438 215.921C898.898 216.939 900.369 217.772 900.706 217.772C901.044 217.772 904.283 219.572 907.904 221.772C911.526 223.972 914.643 225.772 914.833 225.772C915.022 225.772 917.788 227.286 920.98 229.136C924.172 230.987 928.809 233.623 931.284 234.995C933.759 236.367 937.472 238.453 939.534 239.631C945.926 243.28 950.136 245.687 954.034 247.919C956.097 249.1 960.259 251.415 963.284 253.063C966.309 254.711 969.244 256.415 969.807 256.85C970.369 257.284 973.294 258.95 976.307 260.551C979.319 262.153 983.584 264.502 985.784 265.772C987.984 267.042 992.182 269.356 995.113 270.915C998.044 272.473 1001.71 274.654 1003.27 275.76C1004.82 276.867 1006.37 277.772 1006.71 277.772C1007.04 277.772 1010.28 279.572 1013.9 281.772C1017.53 283.972 1020.65 285.772 1020.84 285.772C1021.04 285.772 1023.58 287.185 1026.49 288.912C1029.4 290.639 1033.25 292.889 1035.03 293.912C1040.18 296.857 1045.02 299.62 1048.53 301.622C1050.32 302.64 1056.44 306.24 1062.13 309.622C1067.82 313.005 1072.7 315.772 1072.97 315.772C1073.25 315.772 1074.67 316.605 1076.13 317.623C1077.59 318.641 1082.38 321.404 1086.78 323.763C1091.18 326.122 1095.23 328.392 1095.78 328.807C1096.33 329.223 1098.92 330.735 1101.53 332.167C1104.15 333.6 1108.42 335.944 1111.03 337.377C1113.65 338.809 1116.23 340.336 1116.78 340.77C1117.33 341.204 1119.47 342.507 1121.53 343.665C1123.6 344.824 1126.97 346.72 1129.03 347.879C1131.1 349.037 1133.23 350.348 1133.78 350.792C1134.33 351.235 1137.71 353.161 1141.28 355.071C1155.94 362.903 1167.25 369.784 1167.27 370.886C1167.29 371.732 1153.75 380.685 1144.53 385.925C1142.75 386.941 1139.6 388.738 1137.53 389.919C1135.47 391.1 1131.31 393.415 1128.28 395.063C1125.26 396.711 1122.33 398.397 1121.78 398.809C1121.23 399.222 1119.1 400.507 1117.03 401.665C1113.5 403.649 1110.77 405.206 1103.03 409.632C1101.25 410.655 1097.4 412.905 1094.49 414.632C1091.58 416.359 1088.96 417.772 1088.67 417.772C1088.38 417.772 1086.18 419.122 1083.78 420.772C1081.39 422.422 1079.14 423.772 1078.78 423.772C1078.43 423.772 1076.18 425.122 1073.78 426.772C1071.39 428.422 1069.14 429.772 1068.78 429.772C1068.43 429.772 1066.18 431.122 1063.78 432.772C1061.39 434.422 1059.16 435.772 1058.83 435.772C1058.5 435.772 1053.05 438.922 1046.71 442.772C1040.38 446.622 1034.96 449.772 1034.67 449.772C1034.38 449.772 1032.18 451.122 1029.78 452.772C1027.39 454.422 1025.14 455.772 1024.78 455.772C1024.43 455.772 1022.18 457.122 1019.78 458.772C1017.39 460.422 1015.14 461.772 1014.78 461.772C1014.43 461.772 1012.18 463.122 1009.78 464.772C1007.39 466.422 1005.2 467.772 1004.93 467.772C1004.65 467.772 1000.76 470.022 996.284 472.772C991.803 475.522 987.921 477.772 987.656 477.772C987.391 477.772 984.524 479.572 981.284 481.772C978.044 483.972 975.113 485.772 974.769 485.772C974.425 485.772 972.182 487.122 969.784 488.772C967.386 490.422 965.19 491.772 964.904 491.772C964.618 491.772 962.384 493.122 959.939 494.772C957.494 496.422 955.19 497.772 954.819 497.772C954.448 497.772 952.182 499.122 949.784 500.772C947.386 502.422 945.136 503.772 944.784 503.772C944.432 503.772 942.182 505.122 939.784 506.772C937.386 508.422 935.213 509.772 934.956 509.772C934.699 509.772 931.526 511.572 927.904 513.772C924.283 515.972 921.056 517.772 920.732 517.772C920.409 517.772 918.182 519.122 915.784 520.772C913.386 522.422 911.136 523.772 910.784 523.772C910.432 523.772 908.182 525.122 905.784 526.772C903.386 528.422 901.159 529.772 900.836 529.772C900.512 529.772 897.285 531.572 893.664 533.772C890.042 535.972 886.909 537.772 886.699 537.772C886.49 537.772 883.274 539.64 879.552 541.922C872.995 545.943 870.448 547.433 862.534 551.879C860.472 553.037 858.334 554.339 857.784 554.772C857.234 555.205 855.097 556.507 853.034 557.665C850.972 558.824 847.709 560.672 845.784 561.772C843.859 562.872 840.597 564.725 838.534 565.889C836.472 567.053 833.59 568.853 832.13 569.889C830.67 570.925 829.176 571.772 828.81 571.772C828.444 571.772 826.182 573.122 823.784 574.772C821.386 576.422 819.2 577.772 818.927 577.772C818.654 577.772 814.765 580.022 810.284 582.772C805.803 585.522 801.914 587.772 801.641 587.772C801.368 587.772 799.182 589.122 796.784 590.772C794.386 592.422 792.2 593.772 791.927 593.772C791.654 593.772 787.765 596.022 783.284 598.772C778.803 601.522 774.981 603.772 774.789 603.772C774.598 603.772 770.469 606.08 765.613 608.9C751.659 617.006 750.111 617.889 744.284 621.063C741.259 622.711 738.334 624.397 737.784 624.809C737.234 625.222 735.097 626.507 733.034 627.665C730.972 628.824 727.709 630.672 725.784 631.772C723.859 632.872 720.597 634.725 718.534 635.889C716.472 637.053 713.59 638.853 712.13 639.889C710.67 640.925 709.176 641.772 708.81 641.772C708.444 641.772 706.182 643.122 703.784 644.772C701.386 646.422 699.124 647.772 698.758 647.772C698.392 647.772 696.898 648.619 695.438 649.655C693.978 650.691 691.209 652.433 689.284 653.527C687.359 654.62 681.734 657.881 676.784 660.772C671.834 663.663 666.209 666.924 664.284 668.017C662.359 669.111 659.59 670.853 658.13 671.889C656.67 672.925 655.24 673.772 654.953 673.772C654.666 673.772 650.91 675.926 646.607 678.558C624.267 692.225 626.966 692.943 569.018 657.908C559.797 652.333 552.003 647.772 551.699 647.772C551.394 647.772 549.182 646.422 546.784 644.772C544.386 643.122 542.159 641.772 541.836 641.772C541.512 641.772 538.285 639.972 534.664 637.772C531.042 635.572 527.934 633.772 527.755 633.772C527.577 633.772 523.685 631.455 519.107 628.624C514.53 625.792 508.386 622.198 505.455 620.636C502.524 619.074 498.855 616.89 497.301 615.784C495.747 614.677 494.199 613.772 493.862 613.772C493.524 613.772 490.285 611.972 486.664 609.772C483.042 607.572 479.858 605.772 479.586 605.772C479.315 605.772 477.898 604.929 476.438 603.898C474.978 602.868 471.534 600.813 468.784 599.331C466.034 597.85 461.206 594.981 458.055 592.955C449.697 587.582 435.099 578.478 432.784 577.194C431.684 576.584 429.097 575.115 427.034 573.929C424.972 572.743 421.709 570.872 419.784 569.772C417.859 568.672 414.597 566.806 412.534 565.625C410.472 564.444 406.309 562.125 403.284 560.472C400.259 558.819 396.59 556.635 395.13 555.619C393.67 554.603 392.272 553.772 392.023 553.772C391.774 553.772 384.083 549.272 374.932 543.772C365.781 538.272 358.035 533.772 357.719 533.772C357.403 533.772 355.182 532.422 352.784 530.772C350.386 529.122 348.124 527.772 347.758 527.772C347.392 527.772 345.898 526.925 344.438 525.889C342.978 524.853 340.209 523.111 338.284 522.017C330.806 517.768 317.472 509.935 310.932 505.949C307.163 503.651 303.869 501.772 303.612 501.772C303.355 501.772 301.182 500.422 298.784 498.772C296.386 497.122 294.136 495.772 293.784 495.772C293.432 495.772 291.182 494.422 288.784 492.772C286.386 491.122 284.203 489.772 283.933 489.772C283.664 489.772 275.924 485.272 266.735 479.772C257.545 474.272 249.87 469.772 249.679 469.772C249.488 469.772 244.708 467.006 239.058 463.625C233.407 460.245 227.434 456.703 225.784 455.754C224.134 454.805 218.734 451.663 213.784 448.772C208.834 445.881 203.434 442.736 201.784 441.783C200.134 440.831 196.402 438.639 193.49 436.912C190.578 435.185 187.959 433.772 187.67 433.772C187.381 433.772 185.182 432.422 182.784 430.772C180.386 429.122 178.136 427.772 177.784 427.772C177.432 427.772 175.263 426.521 172.964 424.991C170.665 423.462 167.434 421.563 165.784 420.772C164.134 419.981 160.903 418.082 158.604 416.553C156.305 415.023 154.2 413.772 153.927 413.772C153.654 413.772 149.859 411.58 145.494 408.901C141.129 406.222 137.148 403.859 136.648 403.651C135.726 403.266 120.563 394.295 98.7838 381.247C92.1838 377.294 86.7838 373.452 86.7838 372.71C86.7838 371.556 100.844 361.958 105.284 360.081C106.109 359.732 107.909 358.672 109.284 357.726C110.659 356.78 113.472 355.053 115.534 353.889C117.597 352.725 120.746 350.942 122.534 349.928C124.322 348.915 131.131 344.865 137.666 340.928C144.201 336.992 149.745 333.772 149.986 333.772C150.227 333.772 152.386 332.422 154.784 330.772C157.182 329.122 159.432 327.772 159.784 327.772C160.136 327.772 162.386 326.422 164.784 324.772C167.182 323.122 169.444 321.772 169.81 321.772C170.176 321.772 171.67 320.925 173.13 319.889C174.59 318.853 177.472 317.053 179.534 315.889C181.597 314.725 184.859 312.872 186.784 311.772C188.709 310.672 191.972 308.819 194.034 307.655C196.097 306.491 198.909 304.787 200.284 303.869C201.659 302.951 204.134 301.555 205.784 300.767C207.434 299.978 210.665 298.082 212.964 296.553C215.263 295.023 217.409 293.772 217.732 293.772C218.056 293.772 221.283 291.972 224.904 289.772C228.526 287.572 231.699 285.772 231.956 285.772C232.213 285.772 234.386 284.422 236.784 282.772C239.182 281.122 241.368 279.772 241.641 279.772C241.914 279.772 245.883 277.462 250.461 274.639C255.038 271.815 260.359 268.612 262.284 267.521C264.209 266.43 266.909 264.787 268.284 263.869C269.659 262.951 272.134 261.555 273.784 260.767C275.434 259.978 278.665 258.082 280.964 256.553C283.263 255.023 285.355 253.772 285.612 253.772C285.869 253.772 289.042 251.972 292.664 249.772C296.285 247.572 299.512 245.772 299.836 245.772C300.159 245.772 302.305 244.521 304.604 242.991C306.903 241.462 310.134 239.563 311.784 238.772C313.434 237.981 316.665 236.082 318.964 234.553C321.263 233.023 323.381 231.772 323.67 231.772C323.959 231.772 326.578 230.359 329.49 228.632C332.402 226.905 336.134 224.713 337.784 223.761C339.434 222.808 344.834 219.663 349.784 216.772C354.734 213.881 360.134 210.736 361.784 209.783C363.434 208.831 367.166 206.639 370.078 204.912C372.99 203.185 375.531 201.772 375.726 201.772C375.92 201.772 379.042 199.972 382.664 197.772C386.285 195.572 389.512 193.772 389.836 193.772C390.159 193.772 392.386 192.422 394.784 190.772C397.182 189.122 399.409 187.772 399.732 187.772C400.056 187.772 403.283 185.972 406.904 183.772C410.526 181.572 413.699 179.772 413.956 179.772C414.213 179.772 416.386 178.422 418.784 176.772C421.182 175.122 423.444 173.772 423.81 173.772C424.176 173.772 425.67 172.941 427.13 171.925C428.59 170.909 432.259 168.725 435.284 167.072C438.309 165.419 442.472 163.1 444.534 161.919C446.597 160.738 449.972 158.819 452.034 157.655C454.097 156.491 456.978 154.691 458.438 153.655C459.898 152.619 461.369 151.772 461.706 151.772C462.044 151.772 465.283 149.972 468.904 147.772C472.526 145.572 475.699 143.772 475.956 143.772C476.213 143.772 478.386 142.422 480.784 140.772C483.182 139.122 485.393 137.772 485.697 137.772C486 137.772 489.19 135.972 492.784 133.772C496.378 131.572 499.546 129.772 499.823 129.772C500.1 129.772 502.005 128.704 504.055 127.399C509.557 123.898 529.948 111.927 536.284 108.478C539.309 106.831 542.244 105.129 542.807 104.694C543.369 104.26 546.294 102.589 549.307 100.981C552.319 99.3726 558.834 95.6816 563.784 92.7786C568.734 89.8756 575.259 86.1436 578.284 84.4836C581.309 82.8246 584.978 80.6346 586.438 79.6186C587.898 78.6026 589.341 77.7716 589.644 77.7716C589.948 77.7716 592.578 76.3586 595.49 74.6316C598.402 72.9046 602.246 70.6546 604.034 69.6316C605.822 68.6086 608.972 66.7966 611.034 65.6046C620.948 59.8756 623.907 58.8816 625.834 60.6376ZM597.284 247.381C597.284 299.896 598.93 295.824 581.308 286.918C569.246 280.823 552.093 271.752 550.784 270.777C550.234 270.368 543.484 266.775 535.784 262.793C528.084 258.811 521.334 255.208 520.784 254.787C520.234 254.367 514.609 251.336 508.284 248.054C501.959 244.771 494.984 241.051 492.784 239.787C490.584 238.523 486.759 236.356 484.284 234.971C481.809 233.585 479.043 231.995 478.138 231.436C476.922 230.686 476.051 230.862 474.802 232.112C471.436 235.477 466.614 238.655 457.793 243.321C452.847 245.937 447.376 248.878 445.634 249.856C443.892 250.834 440.513 252.295 438.126 253.103C433.784 254.57 433.784 254.57 433.784 267.921C433.784 281.272 433.784 281.272 442.284 281.897C455.17 282.846 459.613 284.692 470.784 293.738C481.168 302.147 485.707 305.121 500.284 313.063C503.309 314.711 506.234 316.394 506.784 316.803C507.334 317.211 512.959 320.24 519.284 323.534C525.609 326.827 532.584 330.548 534.784 331.802C536.984 333.055 541.182 335.356 544.113 336.915C550.357 340.235 555.288 343.625 555.275 344.59C555.252 346.438 540.261 354.58 521.784 362.781C519.034 364.001 514.871 365.849 512.534 366.886C510.197 367.923 506.146 369.714 503.534 370.866C500.922 372.018 496.534 373.99 493.784 375.247C491.034 376.504 486.984 378.316 484.784 379.272C482.584 380.228 477.534 382.532 473.562 384.391C469.591 386.251 465.941 387.772 465.453 387.772C464.965 387.772 461.914 389.078 458.674 390.675C446.701 396.575 443.264 397.772 438.295 397.772C433.284 397.772 433.284 397.772 433.284 415.199C433.284 432.626 433.284 432.626 436.034 434.035C440.257 436.2 446.667 439.89 447.807 440.812C448.883 441.683 458.207 446.773 464.486 449.918C466.522 450.938 468.736 451.772 469.407 451.772C470.078 451.772 471.475 452.54 472.511 453.478C474.16 454.97 474.67 455.008 476.59 453.784C477.797 453.015 502.184 440.611 530.784 426.221C559.384 411.83 585.451 398.625 588.71 396.875C597.98 391.898 597.284 387.807 597.284 447.241C597.284 499.772 597.284 499.772 625.284 499.772C653.284 499.772 653.284 499.772 653.284 447.772C653.284 399.246 653.399 395.772 655.005 395.772C655.952 395.772 677.439 406.078 702.755 418.674C728.071 431.27 754.409 444.33 761.284 447.696C768.159 451.062 774.531 454.341 775.443 454.982C776.796 455.932 777.813 455.604 780.942 453.21C785.447 449.762 793.015 445.772 795.049 445.772C796.691 445.772 801.437 442.583 805.784 438.559C807.434 437.031 809.152 435.779 809.601 435.777C810.05 435.774 811.962 434.594 813.851 433.153C819.472 428.866 819.203 399.772 813.543 399.772C811.33 399.772 806.938 398.384 802.793 396.374C798.938 394.505 793.984 392.199 791.784 391.249C789.584 390.3 785 388.229 781.597 386.647C778.194 385.066 775.147 383.772 774.827 383.772C774.506 383.772 770.437 381.972 765.784 379.772C761.131 377.572 757.104 375.772 756.834 375.772C756.369 375.772 750.989 373.413 739.784 368.295C737.034 367.039 732.984 365.234 730.784 364.284C728.584 363.334 724.309 361.433 721.284 360.06C718.259 358.686 714.884 357.201 713.784 356.759C697.628 350.271 693.261 346.895 697.768 344.379C698.858 343.77 701.64 342.035 703.948 340.522C706.256 339.009 708.444 337.772 708.81 337.772C709.176 337.772 710.67 336.941 712.13 335.925C713.59 334.909 717.259 332.725 720.284 331.072C728.656 326.498 732.391 324.34 739.901 319.74C743.687 317.421 748.3 314.657 750.152 313.598C752.005 312.539 756.789 309.468 760.784 306.772C773.057 298.49 786.312 291.625 799.284 286.831C801.209 286.12 804.359 284.833 806.284 283.972C808.209 283.11 811.359 282.144 813.284 281.823C820.265 280.662 818.708 253.772 811.659 253.772C809.359 253.772 804.207 251.257 799.13 247.655C797.67 246.619 796.176 245.772 795.81 245.772C795.444 245.772 793.263 244.521 790.964 242.991C788.665 241.462 785.434 239.566 783.784 238.777C782.134 237.989 779.529 236.497 777.995 235.462C775.325 233.661 775.049 233.654 771.495 235.308C769.454 236.259 746.409 247.591 720.284 260.492C694.159 273.393 671.884 284.314 670.784 284.761C669.684 285.207 666.759 286.462 664.284 287.548C652.355 292.785 653.337 296.362 653.044 246.599C652.784 202.272 652.784 202.272 625.034 202.006C597.284 201.74 597.284 201.74 597.284 247.381ZM1198.69 418.625C1199.24 419.517 1199.65 1048.8 1199.1 1049.21C1196.72 1050.99 1189.29 1055.77 1188.9 1055.77C1188.61 1055.77 1185.99 1057.19 1183.08 1058.93C1180.17 1060.66 1175.53 1063.29 1172.78 1064.77C1170.03 1066.25 1165.4 1068.88 1162.49 1070.62C1159.58 1072.35 1156.95 1073.77 1156.64 1073.77C1156.34 1073.77 1154.9 1074.62 1153.44 1075.65C1151.98 1076.69 1149.1 1078.49 1147.03 1079.65C1144.97 1080.82 1141.71 1082.67 1139.78 1083.77C1137.86 1084.87 1134.6 1086.72 1132.53 1087.89C1130.47 1089.05 1127.59 1090.85 1126.13 1091.89C1124.67 1092.92 1123.23 1093.77 1122.92 1093.77C1122.62 1093.77 1119.99 1095.18 1117.08 1096.91C1112.09 1099.87 1110.45 1100.82 1101.78 1105.77C1095.53 1109.34 1091.94 1111.43 1082.78 1116.77C1077.83 1119.66 1072.21 1122.92 1070.28 1124.02C1068.36 1125.11 1065.66 1126.76 1064.28 1127.67C1062.91 1128.59 1060.43 1129.99 1058.78 1130.77C1057.13 1131.56 1054.66 1132.95 1053.28 1133.87C1051.91 1134.79 1049.1 1136.49 1047.03 1137.65C1044.97 1138.82 1041.71 1140.67 1039.78 1141.77C1037.86 1142.87 1034.6 1144.72 1032.53 1145.89C1030.47 1147.05 1027.59 1148.85 1026.13 1149.89C1024.67 1150.92 1023.16 1151.77 1022.77 1151.77C1022.39 1151.77 1020.21 1153.01 1017.93 1154.52C1015.65 1156.03 1012.43 1157.93 1010.78 1158.74C1009.13 1159.55 1005.9 1161.46 1003.6 1162.99C1001.3 1164.52 999.158 1165.77 998.832 1165.77C998.507 1165.77 996.563 1166.84 994.513 1168.14C991.005 1170.38 971.671 1181.84 964.534 1185.91C962.747 1186.94 959.597 1188.74 957.534 1189.93C955.472 1191.11 951.534 1193.29 948.784 1194.77C946.034 1196.25 941.402 1198.88 938.49 1200.62C935.578 1202.35 932.948 1203.77 932.644 1203.77C932.341 1203.77 930.898 1204.6 929.438 1205.62C927.978 1206.63 924.309 1208.82 921.284 1210.47C918.259 1212.13 913.402 1214.89 910.49 1216.62C907.578 1218.36 905.037 1219.77 904.842 1219.77C904.648 1219.77 901.457 1221.61 897.753 1223.86C894.049 1226.11 889.503 1228.81 887.651 1229.86C885.799 1230.91 882.709 1232.67 880.784 1233.77C878.859 1234.87 875.709 1236.67 873.784 1237.77C871.859 1238.87 868.597 1240.72 866.534 1241.89C864.472 1243.05 861.59 1244.85 860.13 1245.89C858.67 1246.92 857.253 1247.77 856.982 1247.77C856.71 1247.77 853.526 1249.57 849.904 1251.77C846.283 1253.97 843.044 1255.77 842.706 1255.77C842.369 1255.77 840.898 1256.62 839.438 1257.65C837.978 1258.69 835.209 1260.43 833.284 1261.53C831.359 1262.63 824.23 1266.73 817.441 1270.65C810.653 1274.57 804.884 1277.77 804.621 1277.77C804.359 1277.77 802.182 1279.12 799.784 1280.77C797.386 1282.42 795.213 1283.77 794.956 1283.77C794.699 1283.77 791.526 1285.57 787.904 1287.77C784.283 1289.97 781.044 1291.77 780.706 1291.77C780.369 1291.77 778.898 1292.62 777.438 1293.65C775.978 1294.69 773.097 1296.49 771.034 1297.65C768.972 1298.82 765.709 1300.67 763.784 1301.77C761.859 1302.87 758.597 1304.72 756.534 1305.89C754.472 1307.05 751.659 1308.76 750.284 1309.67C748.909 1310.59 746.434 1311.99 744.784 1312.78C743.134 1313.57 739.903 1315.46 737.604 1316.99C735.305 1318.52 733.213 1319.77 732.956 1319.77C732.699 1319.77 729.526 1321.57 725.904 1323.77C722.283 1325.97 719.056 1327.77 718.732 1327.77C718.409 1327.77 716.263 1329.02 713.964 1330.55C711.665 1332.08 708.434 1333.99 706.784 1334.8C705.134 1335.61 703.559 1336.53 703.284 1336.86C703.009 1337.18 700.102 1338.9 696.824 1340.69C693.546 1342.47 689.721 1344.7 688.324 1345.64C686.927 1346.58 684.434 1347.99 682.784 1348.78C681.134 1349.57 677.984 1351.36 675.784 1352.77C673.584 1354.18 670.443 1355.99 668.805 1356.8C667.166 1357.61 663.368 1359.73 660.364 1361.52C657.36 1363.31 654.538 1364.77 654.093 1364.77C651.785 1364.77 653.223 734.908 655.534 733.289C660.035 730.135 673.36 721.772 673.885 721.772C674.181 721.772 676.386 720.422 678.784 718.772C681.182 717.122 683.432 715.772 683.784 715.772C684.136 715.772 686.386 714.422 688.784 712.772C691.182 711.122 693.478 709.772 693.885 709.772C694.293 709.772 695.337 709.155 696.205 708.402C697.074 707.648 699.809 705.906 702.284 704.531C704.759 703.156 710.834 699.658 715.784 696.759C720.734 693.859 727.182 690.206 730.113 688.641C733.044 687.076 736.644 684.987 738.113 683.998C739.582 683.009 742.129 681.541 743.772 680.736C745.415 679.931 749.57 677.585 753.004 675.522C756.438 673.46 759.512 671.772 759.836 671.772C760.159 671.772 762.386 670.422 764.784 668.772C767.182 667.122 769.381 665.772 769.67 665.772C769.959 665.772 772.578 664.356 775.49 662.625C778.402 660.895 783.259 658.126 786.284 656.473C789.309 654.819 792.978 652.635 794.438 651.619C795.898 650.603 797.369 649.772 797.706 649.772C798.044 649.772 801.283 647.972 804.904 645.772C808.526 643.572 811.621 641.772 811.784 641.772C811.947 641.772 815.042 639.972 818.664 637.772C822.285 635.572 825.512 633.772 825.836 633.772C826.159 633.772 828.386 632.422 830.784 630.772C833.182 629.122 835.355 627.772 835.612 627.772C835.869 627.772 839.042 625.972 842.664 623.772C846.285 621.572 849.512 619.772 849.836 619.772C850.159 619.772 852.386 618.422 854.784 616.772C857.182 615.122 859.432 613.772 859.784 613.772C860.136 613.772 862.386 612.422 864.784 610.772C867.182 609.122 869.432 607.772 869.784 607.772C870.136 607.772 872.305 606.521 874.604 604.991C876.903 603.462 880.134 601.566 881.784 600.777C883.434 599.989 885.909 598.593 887.284 597.675C888.659 596.757 891.472 595.053 893.534 593.889C895.597 592.725 898.859 590.872 900.784 589.772C902.709 588.672 905.972 586.819 908.034 585.655C910.097 584.491 912.909 582.787 914.284 581.869C915.659 580.951 918.134 579.555 919.784 578.767C921.434 577.978 924.665 576.082 926.964 574.553C929.263 573.023 931.381 571.772 931.67 571.772C931.959 571.772 934.578 570.346 937.49 568.603C940.402 566.861 944.584 564.484 946.784 563.322C948.984 562.161 952.688 559.986 955.014 558.491C957.341 556.996 959.432 555.772 959.662 555.772C959.892 555.772 963.042 553.972 966.664 551.772C970.285 549.572 973.512 547.772 973.836 547.772C974.159 547.772 976.386 546.422 978.784 544.772C981.182 543.122 983.432 541.772 983.784 541.772C984.136 541.772 986.305 540.521 988.604 538.991C990.903 537.462 994.129 535.55 995.772 534.741C997.415 533.933 1001.57 531.585 1005 529.522C1008.44 527.46 1011.51 525.772 1011.84 525.772C1012.16 525.772 1014.39 524.422 1016.78 522.772C1019.18 521.122 1021.43 519.772 1021.78 519.772C1022.14 519.772 1024.39 518.422 1026.78 516.772C1029.18 515.122 1031.39 513.772 1031.7 513.772C1032 513.772 1035.19 511.972 1038.78 509.772C1042.38 507.572 1045.57 505.772 1045.87 505.772C1046.17 505.772 1048.39 504.422 1050.78 502.772C1053.18 501.122 1055.35 499.772 1055.61 499.772C1055.87 499.772 1059.04 497.972 1062.66 495.772C1066.28 493.572 1069.52 491.772 1069.86 491.772C1070.2 491.772 1071.67 490.925 1073.13 489.889C1074.59 488.853 1077.47 487.053 1079.53 485.889C1081.6 484.725 1084.86 482.872 1086.78 481.772C1088.71 480.672 1091.97 478.819 1094.03 477.655C1096.1 476.491 1098.91 474.787 1100.28 473.869C1101.66 472.951 1104.13 471.555 1105.78 470.767C1107.43 469.978 1110.66 468.082 1112.96 466.553C1115.26 465.023 1117.43 463.772 1117.78 463.772C1118.14 463.772 1120.39 462.422 1122.78 460.772C1125.18 459.122 1127.43 457.772 1127.78 457.772C1128.14 457.772 1130.3 456.521 1132.6 454.991C1134.9 453.462 1138.13 451.563 1139.78 450.772C1141.43 449.981 1144.66 448.082 1146.96 446.553C1149.26 445.023 1151.38 443.772 1151.67 443.772C1151.96 443.772 1154.58 442.359 1157.49 440.632C1160.4 438.905 1164.25 436.655 1166.03 435.632C1173.29 431.477 1176.46 429.672 1180.03 427.655C1182.1 426.491 1184.98 424.691 1186.44 423.655C1187.9 422.619 1189.47 421.762 1189.94 421.75C1190.4 421.738 1191.91 420.848 1193.28 419.772C1195.98 417.664 1197.85 417.267 1198.69 418.625ZM58.3338 422.409C61.8518 423.816 72.9568 429.804 86.5338 437.615C88.5968 438.801 91.8588 440.672 93.7838 441.772C95.7088 442.872 98.8588 444.672 100.784 445.772C102.709 446.872 105.972 448.72 108.034 449.879C110.097 451.037 112.234 452.339 112.784 452.772C113.334 453.205 115.472 454.507 117.534 455.665C119.597 456.824 122.972 458.72 125.034 459.879C127.097 461.037 129.273 462.381 129.871 462.866C130.469 463.35 134.294 465.479 138.371 467.597C142.448 469.715 147.472 472.421 149.534 473.61C151.597 474.799 154.859 476.672 156.784 477.772C158.709 478.872 161.746 480.61 163.534 481.635C165.322 482.66 175.109 488.565 185.284 494.759C195.459 500.952 205.359 506.916 207.284 508.013C209.209 509.109 211.978 510.853 213.438 511.889C214.898 512.925 216.369 513.772 216.706 513.772C217.044 513.772 220.283 515.572 223.904 517.772C227.526 519.972 230.699 521.772 230.956 521.772C231.213 521.772 233.386 523.122 235.784 524.772C238.182 526.422 240.444 527.772 240.81 527.772C241.176 527.772 242.747 528.677 244.301 529.784C245.855 530.89 249.524 533.071 252.455 534.629C255.386 536.188 259.472 538.432 261.534 539.617C263.597 540.802 266.972 542.725 269.034 543.889C271.097 545.053 273.978 546.853 275.438 547.889C276.898 548.925 278.341 549.772 278.644 549.772C278.948 549.772 281.578 551.185 284.49 552.912C287.402 554.639 291.134 556.831 292.784 557.783C303.212 563.803 313.697 570.001 319.552 573.606C323.274 575.897 326.568 577.772 326.871 577.772C327.175 577.772 329.386 579.122 331.784 580.772C334.182 582.422 336.444 583.772 336.81 583.772C337.176 583.772 338.67 584.605 340.13 585.623C341.59 586.641 346.384 589.408 350.784 591.772C355.184 594.136 359.909 596.806 361.284 597.707C362.659 598.607 365.134 599.998 366.784 600.798C368.434 601.597 371.809 603.413 374.284 604.834C376.759 606.254 382.384 609.376 386.784 611.772C391.184 614.167 397.259 617.725 400.284 619.678C403.309 621.631 407.584 624.181 409.784 625.343C411.984 626.506 417.834 629.842 422.784 632.758C427.734 635.673 434.034 639.274 436.784 640.76C439.534 642.247 443.584 644.499 445.784 645.765C447.984 647.031 452.259 649.415 455.284 651.063C458.309 652.711 461.234 654.397 461.784 654.809C462.334 655.222 464.472 656.507 466.534 657.665C468.597 658.824 471.859 660.672 473.784 661.772C475.709 662.872 478.972 664.72 481.034 665.879C483.097 667.037 485.234 668.348 485.784 668.792C486.334 669.236 490.384 671.498 494.784 673.818C499.184 676.138 503.978 678.877 505.438 679.904C506.898 680.931 508.392 681.772 508.758 681.772C509.124 681.772 511.386 683.122 513.784 684.772C516.182 686.422 518.432 687.772 518.784 687.772C519.136 687.772 521.386 689.122 523.784 690.772C526.182 692.422 528.432 693.772 528.784 693.772C529.136 693.772 531.386 695.122 533.784 696.772C536.182 698.422 538.432 699.772 538.784 699.772C539.136 699.772 541.386 701.122 543.784 702.772C546.182 704.422 548.432 705.772 548.784 705.772C549.136 705.772 551.386 707.122 553.784 708.772C556.182 710.422 558.409 711.772 558.732 711.772C559.056 711.772 562.283 713.572 565.904 715.772C569.526 717.972 572.71 719.772 572.982 719.772C573.253 719.772 574.688 720.635 576.17 721.691C577.651 722.746 581.546 725.067 584.824 726.849C588.102 728.631 592.696 731.39 595.034 732.979C599.284 735.868 599.284 735.868 599.284 1047.24C599.284 1218.49 599.011 1359.32 598.677 1360.19C597.309 1363.75 593.707 1362.38 574.945 1351.12C570.041 1348.18 565.83 1345.77 565.586 1345.77C565.343 1345.77 563.182 1344.42 560.784 1342.77C558.386 1341.12 556.136 1339.77 555.784 1339.77C555.432 1339.77 553.182 1338.42 550.784 1336.77C548.386 1335.12 546.213 1333.77 545.956 1333.77C545.699 1333.77 542.526 1331.97 538.904 1329.77C535.283 1327.57 532.056 1325.77 531.732 1325.77C531.409 1325.77 529.182 1324.42 526.784 1322.77C524.386 1321.12 522.213 1319.77 521.956 1319.77C521.699 1319.77 518.526 1317.97 514.904 1315.77C511.283 1313.57 508.044 1311.77 507.706 1311.77C507.369 1311.77 505.898 1310.92 504.438 1309.89C502.978 1308.85 500.097 1307.05 498.034 1305.89C495.972 1304.72 492.709 1302.87 490.784 1301.77C488.859 1300.67 485.709 1298.87 483.784 1297.77C481.859 1296.67 478.597 1294.81 476.534 1293.62C474.472 1292.44 470.309 1290.12 467.284 1288.47C464.259 1286.82 460.59 1284.63 459.13 1283.62C457.67 1282.6 456.176 1281.77 455.81 1281.77C455.444 1281.77 453.182 1280.42 450.784 1278.77C448.386 1277.12 446.175 1275.77 445.871 1275.77C445.568 1275.77 442.378 1273.97 438.784 1271.77C435.19 1269.57 432 1267.77 431.697 1267.77C431.393 1267.77 429.182 1266.42 426.784 1264.77C424.386 1263.12 422.213 1261.77 421.956 1261.77C421.699 1261.77 418.526 1259.97 414.904 1257.77C411.283 1255.57 408.044 1253.77 407.706 1253.77C407.369 1253.77 405.821 1252.87 404.267 1251.76C402.713 1250.65 399.044 1248.47 396.113 1246.91C390.395 1243.87 382.229 1239.14 370.385 1232.02C366.316 1229.57 361.478 1226.72 359.635 1225.67C357.792 1224.63 354.597 1222.81 352.534 1221.62C350.472 1220.44 346.309 1218.12 343.284 1216.47C340.259 1214.82 336.59 1212.63 335.13 1211.62C333.67 1210.6 332.199 1209.77 331.862 1209.77C331.524 1209.77 328.285 1207.97 324.664 1205.77C321.042 1203.57 317.947 1201.77 317.784 1201.77C317.621 1201.77 314.526 1199.97 310.904 1197.77C307.283 1195.57 304.056 1193.77 303.732 1193.77C303.409 1193.77 301.182 1192.42 298.784 1190.77C296.386 1189.12 294.12 1187.77 293.749 1187.77C293.378 1187.77 291.074 1186.42 288.629 1184.77C286.184 1183.12 283.972 1181.77 283.714 1181.77C283.456 1181.77 281.341 1180.55 279.014 1179.05C276.688 1177.56 272.984 1175.39 270.784 1174.23C268.584 1173.07 262.13 1169.35 256.441 1165.95C250.752 1162.55 245.883 1159.77 245.621 1159.77C245.359 1159.77 243.182 1158.42 240.784 1156.77C238.386 1155.12 236.209 1153.77 235.947 1153.77C235.685 1153.77 230.816 1151 225.127 1147.61C219.438 1144.23 212.309 1140.11 209.284 1138.46C206.259 1136.81 202.59 1134.63 201.13 1133.62C199.67 1132.6 198.176 1131.77 197.81 1131.77C197.444 1131.77 195.182 1130.42 192.784 1128.77C190.386 1127.12 188.213 1125.77 187.956 1125.77C187.699 1125.77 184.405 1123.89 180.636 1121.59C174.393 1117.79 161.512 1110.21 153.667 1105.74C151.953 1104.76 147.453 1102.06 143.667 1099.74C139.881 1097.42 135.209 1094.63 133.284 1093.54C131.359 1092.45 129.334 1091.22 128.784 1090.81C128.234 1090.4 125.309 1088.7 122.284 1087.05C119.259 1085.39 113.687 1082.13 109.901 1079.81C101.114 1074.42 97.4178 1072.31 88.7838 1067.75C74.0838 1060 66.5638 1055.84 60.2838 1052.01C53.7838 1048.05 53.7838 1048.05 53.2838 735.161C53.0088 563.072 52.9228 421.935 53.0928 421.522C53.5098 420.51 53.6478 420.534 58.3338 422.409ZM289.836 659.022C289.624 659.71 289.171 661.545 288.829 663.101C288.486 664.657 288.232 697.845 288.264 736.851C288.304 785.737 287.996 807.772 287.273 807.772C285.962 807.772 282.725 804.092 268.923 786.905C255.504 770.197 241.029 752.446 240.273 751.772C239.964 751.497 236.919 747.897 233.506 743.772C230.093 739.647 224.589 733.122 221.277 729.272C217.964 725.422 211.56 717.772 207.046 712.272C202.531 706.772 197.774 701.147 196.474 699.772C195.174 698.397 193.085 695.69 191.833 693.757C188.415 688.481 186.776 687.446 183.043 688.205C181.251 688.569 178.317 689.12 176.525 689.43C174.732 689.74 173.018 690.393 172.716 690.882C172.413 691.372 171.335 691.772 170.319 691.772C161.007 691.772 153.92 700.747 153.103 713.575C150.586 753.104 150.593 753.23 155.39 754.737C162.544 756.983 166.468 760.232 175.403 771.307C178.493 775.138 185.427 782.997 190.813 788.772C196.198 794.547 203.345 802.209 206.694 805.798C210.044 809.388 216.609 816.588 221.284 821.798C225.959 827.009 230.028 831.497 230.326 831.772C239.623 840.342 254.459 862.686 252.702 865.471C251.648 867.141 231.649 877.747 229.523 877.763C228.83 877.768 226.13 878.717 223.523 879.872C217.974 882.33 214.558 883.756 211.784 884.772C210.684 885.175 208.659 885.971 207.284 886.541C205.909 887.111 202.084 888.565 198.784 889.772C195.484 890.979 191.884 892.322 190.784 892.756C189.684 893.189 186.759 894.089 184.284 894.755C181.809 895.422 179.003 896.373 178.048 896.869C177.093 897.366 175.85 897.772 175.287 897.772C174.723 897.772 172.13 898.785 169.523 900.022C165.698 901.838 163.242 902.24 156.784 902.107C148.784 901.941 148.784 901.941 148.784 930.779C148.784 959.616 148.784 959.616 152.784 960.881C154.984 961.576 157.909 962.908 159.284 963.84C173.774 973.667 180.847 976.317 184.464 973.274C188.836 969.595 209.439 959.854 221.284 955.866C224.859 954.662 228.565 953.249 229.52 952.725C230.475 952.201 231.718 951.772 232.281 951.772C232.845 951.772 235.438 950.827 238.045 949.672C240.651 948.518 243.797 947.168 245.034 946.672C246.271 946.177 248.297 945.368 249.534 944.874C252.5 943.69 257.628 941.494 263.784 938.772C266.534 937.556 270.359 935.88 272.284 935.047C274.209 934.214 278.141 932.432 281.021 931.085C283.901 929.739 286.714 928.92 287.271 929.264C287.94 929.677 288.284 954.316 288.284 1001.79C288.284 1073.7 288.284 1073.7 294.229 1077.73C297.499 1079.95 300.467 1081.77 300.825 1081.77C301.183 1081.77 302.67 1082.6 304.13 1083.62C305.59 1084.63 309.259 1086.82 312.284 1088.47C320.591 1093.01 325.672 1095.9 326.784 1096.72C330.011 1099.1 331.461 1098.57 338.044 1092.61C344.784 1086.5 344.784 1086.5 344.427 1026.89C344.037 961.692 344.192 958.591 347.927 956.889C351.728 955.157 351.492 954.976 364.371 969.522C371.067 977.085 381.099 988.422 386.665 994.715C392.23 1001.01 399.034 1008.69 401.784 1011.77C404.534 1014.86 408.138 1018.94 409.793 1020.83C411.447 1022.72 418.422 1030.59 425.293 1038.32C432.163 1046.04 440.244 1055.34 443.251 1058.99C447.529 1064.17 449.051 1065.4 450.251 1064.66C458.103 1059.8 460.719 1058.34 467.006 1055.28C470.977 1053.35 475.103 1051.77 476.174 1051.77C481.382 1051.77 481.272 1052.37 480.743 1026.92C480.473 1013.92 480.259 1002.7 480.268 1002C480.277 1001.3 479.265 1000.33 478.019 999.861C473.746 998.237 451.733 977.751 440.314 964.772C436.201 960.097 428.744 951.997 423.742 946.772C418.741 941.547 411.994 934.347 408.75 930.772C405.506 927.197 396.217 917.558 388.108 909.353C370.95 891.989 370.76 894.053 390.081 887.929C397.618 885.541 404.565 883.178 405.52 882.679C406.475 882.18 408.136 881.772 409.211 881.772C410.286 881.772 411.444 881.322 411.784 880.772C412.124 880.222 413.282 879.772 414.357 879.772C415.432 879.772 417.093 879.368 418.048 878.875C419.003 878.382 425.859 876.069 433.284 873.736C453.028 867.531 458.549 865.739 460.784 864.807C461.884 864.349 464.359 863.433 466.284 862.772C468.209 862.111 470.684 861.189 471.784 860.723C472.884 860.256 474.65 859.739 475.707 859.574C477.538 859.286 477.627 858.253 477.548 838.074C477.457 814.559 477.646 815.493 472.492 813.115C470.452 812.175 466.903 810.138 464.604 808.589C462.305 807.04 460.147 805.772 459.809 805.772C459.47 805.772 455.856 803.52 451.777 800.767C444.361 795.763 444.361 795.763 441.072 797.58C439.264 798.58 433.959 800.875 429.284 802.68C424.609 804.486 419.884 806.324 418.784 806.766C417.684 807.208 415.209 808.111 413.284 808.772C411.359 809.433 408.884 810.325 407.784 810.754C406.684 811.183 402.409 812.568 398.284 813.833C394.159 815.098 390.356 816.501 389.834 816.952C389.312 817.403 387.939 817.772 386.784 817.772C385.629 817.772 384.257 818.144 383.734 818.598C383.212 819.052 380.759 820.004 378.284 820.712C375.809 821.42 372.884 822.353 371.784 822.785C368.659 824.012 364.189 825.431 359.284 826.753C356.809 827.421 354.003 828.373 353.048 828.869C352.093 829.366 350.432 829.772 349.357 829.772C348.282 829.772 347.124 830.222 346.784 830.772C346.444 831.322 345.456 831.772 344.588 831.772C342.886 831.772 342.899 830.743 345.324 774.272C345.844 762.172 346.69 741.697 347.205 728.772C347.72 715.847 348.418 701.672 348.757 697.272C349.519 687.358 349.952 687.993 337.863 681.275C329.831 676.811 291.941 657.772 291.09 657.772C290.612 657.772 290.048 658.335 289.836 659.022ZM944.507 668.658C942.704 670.201 940.004 672.089 938.507 672.854C933.819 675.248 910.966 690.599 907.006 694.014C902.856 697.593 902.865 696.361 906.312 782.272C907.405 809.519 907.59 830.132 906.75 830.972C906.291 831.431 898.2 829.152 891.784 826.757C890.684 826.346 886.409 825.003 882.284 823.772C874.659 821.496 871.162 820.24 868.048 818.655C867.093 818.169 865.495 817.772 864.498 817.772C863.5 817.772 862.256 817.414 861.734 816.976C861.212 816.538 858.984 815.609 856.784 814.91C854.584 814.211 851.884 813.282 850.784 812.844C849.684 812.407 846.984 811.507 844.784 810.844C842.584 810.182 839.884 809.249 838.784 808.772C837.684 808.294 833.859 806.939 830.284 805.761C822.656 803.246 811.97 798.396 808.301 795.784C805.715 793.943 805.715 793.943 801.824 797.857C799.684 800.01 797.53 801.772 797.038 801.772C796.547 801.772 794.182 803.122 791.784 804.772C789.386 806.422 787.112 807.772 786.731 807.772C786.35 807.772 783.168 809.82 779.661 812.323C773.284 816.873 773.284 816.873 773.117 836.823C773.026 847.795 772.913 857.549 772.867 858.498C772.815 859.584 773.897 860.561 775.784 861.131C777.434 861.631 779.684 862.378 780.784 862.792C781.884 863.205 784.809 864.097 787.284 864.772C789.759 865.447 792.684 866.34 793.784 866.755C796.078 867.621 806.659 870.88 813.284 872.762C815.759 873.465 820.259 874.819 823.284 875.772C826.309 876.725 830.809 878.079 833.284 878.782C842.869 881.505 850.858 884.04 852.52 884.887C853.475 885.374 854.944 885.772 855.784 885.772C856.624 885.772 858.093 886.185 859.048 886.689C860.003 887.193 863.406 888.371 866.61 889.306C873.192 891.227 874.413 892.886 871.586 896.073C870.513 897.282 868.319 900.895 866.71 904.101C861.531 914.419 830.692 946.14 788.284 984.771C780.859 991.535 773.921 997.877 772.866 998.866C771.31 1000.32 771.181 1000.94 772.182 1002.15C773.105 1003.26 773.336 1009.69 773.1 1027.66C772.784 1051.69 772.784 1051.69 778.784 1053.81C782.084 1054.97 788.861 1057.92 793.844 1060.35C805.279 1065.93 804.749 1066 811.284 1058.1C814.309 1054.44 817.237 1050.96 817.79 1050.36C818.344 1049.76 822.394 1045.05 826.79 1039.89C858.103 1003.13 879.095 980.468 889.795 971.871C891.439 970.55 895.337 967.064 898.458 964.123C907.949 955.178 907.284 950.687 907.284 1023.7C907.284 1087.42 907.284 1087.42 913.782 1093.16C920.493 1099.08 925.586 1098.03 940.438 1087.63C941.898 1086.61 943.369 1085.77 943.706 1085.77C944.044 1085.77 947.283 1083.97 950.904 1081.77C954.526 1079.57 957.71 1077.77 957.982 1077.77C958.253 1077.77 959.782 1076.84 961.38 1075.7C964.284 1073.64 964.284 1073.64 964.284 1001.17C964.284 943.918 964.548 928.608 965.541 928.227C966.232 927.962 970.619 929.766 975.291 932.237C987.979 938.948 999.267 944.401 1019.28 953.489C1029.53 958.143 1033.78 960.023 1035.78 960.801C1038.09 961.696 1047.41 965.956 1058.5 971.189C1065.78 974.624 1066.4 974.751 1069.5 973.44C1076.47 970.494 1082.89 967.352 1085.28 965.714C1089.73 962.673 1095.31 959.772 1096.7 959.772C1097.45 959.772 1098.99 958.985 1100.13 958.022C1102.85 955.725 1103.88 910.727 1101.23 910.015C1099.02 909.419 1095.06 907.694 1092.28 906.113C1087.24 903.241 1083.65 901.921 1077.78 900.785C1067.94 898.878 1057.42 895.9 1055.83 894.568C1055.31 894.13 1054.27 893.772 1053.52 893.772C1050.37 893.772 994.284 866.007 994.284 864.449C994.284 860.674 1010.9 840.697 1034.31 816.318C1041.21 809.143 1052.52 796.972 1059.46 789.272C1070.71 776.788 1090.17 757.772 1091.69 757.772C1092 757.772 1093.05 757.106 1094.02 756.291C1094.99 755.476 1096.65 754.189 1097.7 753.43C1099.49 752.148 1099.54 751.552 1098.45 744.969C1097.81 741.074 1097.28 734.084 1097.28 729.435C1097.28 704.327 1095.51 698.72 1086.28 694.58C1062.61 683.96 1065.18 683.054 1045.84 708.82C1037.15 720.397 1029.52 730.41 1028.87 731.07C1027.72 732.258 1023.73 737.141 1003.34 762.356C997.593 769.46 992.622 775.497 992.291 775.772C991.96 776.047 987.886 780.908 983.237 786.575C978.588 792.241 973.046 798.991 970.921 801.575C963.901 810.111 964.355 814.185 964.055 739.896C963.784 672.882 963.784 672.882 960.338 669.327C955.759 664.603 949.551 664.341 944.507 668.658Z" fill="#35FFBE"/>
</svg>
